<svg xmlns="http://www.w3.org/2000/svg" xmlns:xlink="http://www.w3.org/1999/xlink" viewBox="0,0,256,256" width="50px" height="50px" fill-rule="nonzero"><g fill="#5dff81" fill-rule="nonzero" stroke="none" stroke-width="1" stroke-linecap="butt" stroke-linejoin="miter" stroke-miterlimit="10" stroke-dasharray="" stroke-dashoffset="0" font-family="none" font-weight="none" font-size="none" text-anchor="none" style="mix-blend-mode: normal"><g transform="scale(5.12,5.12)"><path d="M19.80273,0.99609c-0.29063,0.06094 -0.55313,0.30352 -0.70312,0.60352c-0.2,0.4 -0.09883,0.79961 0.20117,1.09961c2.3,2.3 2.79883,5.8 2.79883,8c-5.7,-4.8 -15.7,-5.49961 -21.5,-2.59961c-0.4,0.2 -0.59961,0.6 -0.59961,1c0,0.4 0.29922,0.70039 0.69922,0.90039c4.5,1.3 7.3,4.39961 8.5,6.09961c-2.3,0.3 -3.99922,1.2 -5.69922,2c-0.4,0.2 -0.6,0.6 -0.5,1c0,0.4 0.30078,0.80039 0.80078,0.90039c1.9,0.5 3.79922,1.40078 5.19922,2.30078c-5.5,0.9 -8.49922,3.89961 -8.69922,4.09961c-0.3,0.3 -0.40078,0.6 -0.30078,1c0.1,0.3 0.39922,0.59922 0.69922,0.69922c0,0 2.40078,0.60078 4.30078,1.80078c-2.5,1.3 -4.70078,3.4 -4.80078,3.5c-0.2,0.2 -0.29883,0.6 -0.29883,1c0.1,0.3 0.29922,0.59922 0.69922,0.69922l10,3h0.30078h0.01758c0.15039,0.15106 0.30923,0.29214 0.48242,0.40039l3.42188,2.08984l0.37695,2.41016c0.1,0.8 0.60078,1.5 1.30078,2l6.30078,4.5c0.5,0.3 0.99961,0.5 1.59961,0.5h1.59961c0.2,0 0.30078,-0.00039 0.30078,0.09961c0.4,-0.1 0.79961,-0.3 1.09961,-0.5l6.29883,-4.5c0.7,-0.5 1.10078,-1.19961 1.30078,-2.09961l0.3418,-2.00781l3.95898,-2.39258c0.25299,-0.16866 0.47296,-0.3744 0.67188,-0.59961h0.02734h0.30078l7,-2c0.3,-0.1 0.59922,-0.39922 0.69922,-0.69922c0.1,-0.3 -0.00078,-0.7 -0.30078,-1l-3.29883,-3.30078l5.29883,-5.30078c0.2,-0.2 0.30078,-0.59844 0.30078,-0.89844c-0.1,-0.3 -0.29961,-0.60117 -0.59961,-0.70117l-3.70117,-1.5l4.10156,-4.90039c0.3,-0.3 0.29961,-0.79922 0.09961,-1.19922c-0.2,-0.4 -0.69961,-0.50039 -1.09961,-0.40039l-9.30078,2.80078c-0.8,-1.2 -2.50039,-3.30117 -5.40039,-3.70117c0.1,-2.8 -0.7,-5.49844 -2.5,-7.89844c-2.6,-3.4 -6.8,-5.70078 -11.5,-6.30078c-0.1,-0.025 -0.2,-0.02422 -0.29687,-0.00391zM26.19922,26c0.1,1.5 0.00078,4 -1.19922,6.5c-0.2,0.3 -0.10078,0.79961 0.19922,1.09961c0.3,0.3 0.70156,0.40117 1.10156,0.20117c2.8,-1.3 5.8,-3.50117 7.5,-4.70117c0.4,2.5 0.09961,3.40039 0.09961,3.40039c-0.3,0.4 -0.20078,0.89922 0.19922,1.19922c0.4,0.3 0.90078,0.3 1.30078,0l3.29883,-2.69922c0.1,0.1 0.10156,0.29961 0.10156,0.59961v4.20117c0,0.4 -0.2,0.8 -0.5,1l-2.50195,1.51172l0.00195,-0.01172c0.1,-0.6 -0.30078,-1.10117 -0.80078,-1.20117c-0.6,-0.1 -1.09922,0.30078 -1.19922,0.80078l-0.80078,4.69922c0,0.3 -0.2,0.60078 -0.5,0.80078l-6.30078,4.5c-0.1,0.1 -0.29844,0.09961 -0.39844,0.09961h-0.10156h-1.39844c-0.1,0 -0.30039,0.00039 -0.40039,-0.09961l-6.30078,-4.5c-0.2,-0.2 -0.4,-0.50078 -0.5,-0.80078l-0.79883,-5c0,-0.5 -0.50156,-0.89883 -1.10156,-0.79883c-0.5,0 -0.89883,0.59961 -0.79883,1.09961l0.00976,0.06836l-1.91016,-1.16797c-0.3,-0.2 -0.5,-0.6 -0.5,-1v-4.20117v-0.40039c0.8,1.9 1.30078,2.5 2.30078,3.5c0.3,0.3 0.69961,0.40117 1.09961,0.20117c0.4,-0.1 0.59961,-0.50039 0.59961,-0.90039c0,-2.2 0.8,-4.20078 1.5,-5.80078c-0.1,1.4 -0.09922,2.90156 0.30078,4.10156c0.1,0.4 0.49844,0.69922 0.89844,0.69922c0.4,0.1 0.8,-0.1 1,-0.5c1.4,-2.6 4.7,-5.2 6.5,-6.5zM32.08398,33.99609c-0.12813,-0.02188 -0.25977,-0.02109 -0.38477,0.00391l-4,1c-0.5,0.1 -0.79922,0.69922 -0.69922,1.19922c0.1,0.5 0.6,0.80078 1,0.80078c0.03073,0 0.05615,-0.00491 0.08398,-0.00781c0.20947,0.60303 0.77765,1.00741 1.41602,1.00781c0.4491,-0.00012 0.87452,-0.20147 1.15934,-0.5487c0.28482,-0.34723 0.39907,-0.80382 0.31136,-1.24427l1.22852,-0.30664c0.5,-0.1 0.80117,-0.70117 0.70117,-1.20117c-0.075,-0.375 -0.43203,-0.6375 -0.81641,-0.70312zM18.10938,34.05273c-0.45117,-0.05059 -0.92227,0.31055 -1.00977,0.74805c-0.2,0.5 0.20117,1.09922 0.70117,1.19922l1.21289,0.30273c-0.05683,0.42835 0.07383,0.86041 0.35851,1.18548c0.28468,0.32508 0.69571,0.5116 1.12782,0.51178c0.6349,-0.00089 1.20048,-0.40141 1.41211,-1h0.08789c0.4,0 0.9,-0.29922 1,-0.69922c0.2,-0.5 -0.19922,-1.10117 -0.69922,-1.20117l-4,-1c-0.0625,-0.025 -0.12695,-0.03965 -0.19141,-0.04687zM24,40c-0.6,0 -1,0.4 -1,1c0,0.6 0.4,1 1,1h2c0.6,0 1,-0.4 1,-1c0,-0.6 -0.4,-1 -1,-1zM22,43c0.5,1.2 1.7,2 3,2c1.3,0 2.5,-0.8 3,-2z"></path></g></g></svg>