<svg xmlns="http://www.w3.org/2000/svg"  viewBox="0 0 120 120" width="120px" height="120px" baseProfile="basic"><path d="M41,90l-31-9c0,0,9-9,19-9c0,0-4-4-19-6c0,0,10.069-9.395,24-9c0,0-4-7-17-9c0,0,5-4,14-4 c0,0-2-11-21-17c0,0,25.681-13.447,48,9c0,0,1.02-11.159-7-25c0,0,27.25,1.691,28,31c0,0,9.354-0.5,14,9c0,0,4.974-7,21-7 c-8.087,8.152-10,13-10,13l11,4L95.228,76c0,0,10.22,0.792,15.772,5c-14.877,3.702-29,11-29,11S57,90,41,90z" opacity=".35"/><path fill="#0037ff" d="M41,87l-31-9c0,0,9-9,19-9c0,0-4-4-19-6c0,0,10.069-9.395,24-9c0,0-4-7-17-9c0,0,5-4,14-4 c0,0-2-11-21-17c0,0,25.681-13.447,48,9c0,0,1.02-11.159-7-25c0,0,28,4,28,28c0,0,9.354,2.5,14,12c0,0,4.974-7,21-7 c-8.087,8.152-10,13-10,13l11,4L95.228,73c0,0,10.22,0.792,15.772,5c-14.877,3.702-29,11-29,11S57,87,41,87z"/><path d="M80,84l9-9l2,1c0,0,0.414,9.794-1,13c-1.401,3.178-5.856,7-11.856,8L80,84z" opacity=".35"/><path d="M40.06,84l-9-9l-2,1c0,0-0.414,9.794,1,13c1.401,3.178,5.856,7,11.856,8L40.06,84z" opacity=".35"/><path fill="#ffa6a3" d="M80,81l9-9l2,1c0,0,0.414,9.794-1,13c-1.401,3.178-5.856,7-11.856,8L80,81z"/><path fill="#ffa6a3" d="M40.06,81l-9-9l-2,1c0,0-0.414,9.794,1,13c1.401,3.178,5.856,7,11.856,8L40.06,81z"/><polygon points="79,56.754 41,56.754 34.545,64.455 42.545,102.455 58,114 62,114 77.389,103 85.389,65" opacity=".35"/><polygon fill="#ffc1bf" points="79,53.754 41,53.754 34,62 38,81 42,100 58,111 62,111 78,100 82,81 86,62"/><path fill="#fff" d="M65,84v5l11-2c1.25-5,1-9,1-9h-4L65,84z"/><path fill="#fff" d="M55,84v5l-11-2c-1.25-5-1-9-1-9h4L55,84z"/><circle cx="68.5" cy="84.5" r="2.5" fill="#9c4000"/><circle cx="51.5" cy="84.5" r="2.5" fill="#9c4000"/><polygon fill="#0037ff" points="62,85 65,85 80,77 77,73"/><polygon fill="#0037ff" points="58,85 55,85 40,77 43,73"/><path d="M83.5,55.315c0,0-1.08,1.043-2.186,2.294l-2.774-4.798c-4.646-9.5-48.499,4.268-44.552,5.826 l-3.047,3.639l6.457,15.903c0,0,3.28-10.5,13.736-13.006c0.019,0.005,0,0,0,0C48.115,74.413,53,77.984,53,77.984 c5.203-12.121,14.204-11.617,14.204-11.617C69.42,71.77,65,78.984,65,78.984c4.571-0.653,12.612-7.189,17.009-11.411 c1.175,6,0.524,10.893,0.524,10.893l4.52-11.551L88,58.166L83.5,55.315z" opacity=".35"/><path fill="#0037ff" d="M83.5,53.315c0,0-1.08,1.043-2.186,2.294l-2.774-4.798c-4.646-9.5-48.499,4.268-44.552,5.826 l-4.259,4.011L37.368,78c0,0,3.144-13.519,13.6-16.025C50.988,61.981,51,61.984,51,61.984c-3.019,9.24,2,14,2,14 c5.203-12.121,13.283-13,13.283-13c2.216,5.403-1.283,14-1.283,14c4.571-0.653,11.7-6.849,16.097-11.071 c1.175,6,1.436,12.553,1.436,12.553L88,68V56.166L83.5,53.315z"/><g><polygon fill="#ff9182" points="65,100 55,100 58,98 60,99 62,98"/><polygon fill="#ff9182" points="62.447,101.955 57.553,101.955 59,104 61,104"/></g></svg>